<svg xmlns="http://www.w3.org/2000/svg" version="1.1" width="600px" height="600px" viewBox="0 0 200 200" style="overflow:hidden!important;"><g id="svga-group-wrapper"><g id="svga-group-backs-single"></g><g id="svga-group-humanwrap-move" transform="matrix(1,0,0,1,0,0)"><g id="svga-group-humanwrap"><g id="svga-group-hair-back-move" transform="matrix(1,0,0,1,0,0)"><g id="svga-group-hair-back"></g></g><g id="svga-group-humanbody-back"><path id="SvgjsPath12892" d="m170 180.3-27.3-6.9-18-9.9-1.5-28.2H76.8l-1.5 28.2-18 9.9-27.3 6.9-9.1 19.7-3 20h164.2l-3-20z" fill="#875732" stroke-width="none" opacity="1"></path><path id="SvgjsPath12893" d="m76.8 135.3-1.5 28.2-18 9.9-27.3 6.9-9.1 19.7-3 20h14.6v-20l2.7-17.7 23.8-6.4 24.7-8.3 3.5-32.3z" fill="#683712" stroke-width="none" opacity="1"></path></g><g id="svga-group-chinshadow-single"><path id="SvgjsPath12888" d="m122.4 140.2 1-1-.2-3.9H76.8l-.5 9.2 13.8 13.8h14.3z" fill="#592a06" stroke-width="none" opacity="1"></path></g><g id="svga-group-humanbody-front"><path id="SvgjsPath12894" d="m92.8 168.3 2 7.9 6.9 4.6s-8.5-3-8.7-3.6c-.2-.6-.2-8.9-.2-8.9z" fill="#683712" stroke-width="none" opacity="1"></path></g><g id="svga-group-clothes-single"><path id="SvgjsPath12775" d="m184.7 220-8.1-35.4-4.8-3.5-1.5-2-17.6-6.8-8.6-15.9-3.8-1.6-7.3-9-9.4-3.1.6 11-1.3 10.1-8.9 9.1-8.1 9.8-2.5 5-1.7-3.2-4.5-3.8-11.2-7.8-8.9-9.1-1.3-10.1.6-11-9.4 3.1-7.3 9-3.8 1.6-8.6 15.9-17.6 6.8-1.5 2-4.8 3.5-8.1 35.4z" fill="#0f191b" stroke-width="none" opacity="1"></path><path id="SvgjsPath12776" d="m134.2 188.8-15 3.8-9.9.2-.1-1.7 1.3-.1-.7-2.3-3.2.3-.1 2.3.8-.1v1.6h-2.1l2.1.2.1 5.9-.7 7.4 1.6 7.5.3 4.8 2.6-1-.3-5.1-2-6.6.9-7.3-.3-5.6 9.7.7 15.8-4.1 16-12.2 2-5.3-3.2 4.1-15.6 12.6zm-32.2 4.3-2.5-.2.2-1.8.6.1 1.2-2.2-3.3-2.3-2 1.9 1.2 2.3h.1v1.9l-1.5-.1-26-6.9-15.8-11 1.9-11L59 160l11 18.7 17.7 7.2-14.8-7.9-8.1-12.4 2.2-19.8-7.2 8.9-3.8 1.7-8.6 15.8-17.7 6.8-1.5 2-4.8 3.5-8.1 35.5h10.2l1.3-14.3 3.3-18.1 2.9 2.6 2.6 13.9 1.2 15.9v-16.2l-2.6-15.3-2.2-4.3 1.4-1.7 16.7-6L69 187.3l26.8 6.2 1.5-.1-.1 3.4 1.4 9.9s-3 9.8-2.8 9.9c.3.2 1.7 2.8 1.8 2.6.1-.3 3.5-12.5 3.5-12.5l-1.9-10.4.3-3.1 2.5-.1zm-26.2-39.4.6-10.8-4 5.1-.7 8.4 5.4 7.5-1.3-10.2zm49.1 11 6.7-6.9-.7-10.8-7.3-4.3.6 11-1.3 10.2-8.9 9.1-8.1 9.8-2.5 5 6.5-8.5 15-14.6zm-18.1 22.4 22.9-5 11.2-13.4 3.2-12.3-3.8-1.7-2.4 13-8.6 13.1-22.5 6.3zm56.5 9.7.8 21.6.5-20.4 4.5-13.1-5.8 11.9z" fill="#050b0c" stroke-width="none" opacity="1"></path><path id="SvgjsPath12777" d="m137.4 165.7 1.2-10.5-6-6.2 1.4 10.3-10.3 16.1-14 8.7 18.6-4.5 9.1-13.9zm13.6 6.2-6.2-10.1c.2.6-2.1 9.5-2.1 9.5l-10.3 12.4-15.5 7.2 16.7-3.1 15.7-12.6 1.7-3.3zm24.8 14-3.7-1.9-2.3 5.6 3.9 9.3 3.9 19.2 4.1.2-5.9-32.4zm-7.7-6.5-14.4-4.8-2.5 5-8.3 5.6 19.4.6 4.5 1.2 3.7-5.6-2.4-2zM85 175.6l-10.1-10.3-3.7-7.4-1.4.6 3.1 11.6 11.6 9.1 14.4 5.6 3.1 3.9-3.3-5.6-13.7-7.5zm43.1-12.5-16.7 16.1-6.6 8.5 13.4-11.6 9.9-13z" fill="#1c282a" stroke-width="none" opacity="1"></path></g><g id="svga-group-head" transform="matrix(1,0,0,1,0,0)"><g id="svga-group-ears-left-move" transform="matrix(1,0,0,1,0,0)"><g id="svga-group-ears-left"><path id="SvgjsPath12790" d="M60.9 93s-5.5-3-7.7-3.9c0 0-3.9 5.4-5.1 7.2 0 0 3.1 14.7 3.9 17.3l5 6.5 5.4-1.7 4.2-14.2L60.9 93z" fill="#875732" stroke-width="none" opacity="1"></path><path id="SvgjsPath12791" d="M58.8 104.7c-.2-.4-6-10-6-10l-2.3 7.9 2.6-2.4 1.6 2.9s-.3 5-.2 5.5c0 .5 2.4 4.3 2.4 4.3l1.9-8.2z" fill="#683712" stroke-width="none" opacity="1"></path><path id="SvgjsPath12792" d="m58.4 98-5.2-8.9c2.2.9 7.7 1.8 7.7 1.8l5.7 13.3-4.2 14.2-5.4 1.7 3.6-3.4L58.4 98z" fill="#784620" stroke-width="none" opacity="1"></path></g></g><g id="svga-group-ears-right-move" transform="matrix(1,0,0,1,0,0)"><g id="svga-group-ears-right"><path id="SvgjsPath12793" d="M139.1 93s5.5-3 7.7-3.9c0 0 3.9 5.4 5.1 7.2 0 0-3.1 14.7-3.9 17.3l-5 6.5-5.4-1.7-4.2-14.2 5.7-11.2z" fill="#875732" stroke-width="none" opacity="1"></path><path id="SvgjsPath12794" d="M141.2 104.7c.2-.4 6-10 6-10l2.3 7.9-2.6-2.4-1.6 2.9s.3 5 .2 5.5c0 .5-2.4 4.3-2.4 4.3l-1.9-8.2z" fill="#683712" stroke-width="none" opacity="1"></path><path id="SvgjsPath12795" d="m141.6 98 5.2-8.9c-2.2.9-7.7 1.8-7.7 1.8l-5.7 13.3 4.2 14.2 5.4 1.7-3.6-3.4 2.2-18.7z" fill="#784620" stroke-width="none" opacity="1"></path></g></g><g id="svga-group-faceshape-wrap"><g id="svga-group-faceshape-single"><path id="SvgjsPath12874" d="M138.1 60c-6.9-11.6-19.7-19.5-19.7-19.5-7.2-1.5-18.4-2.3-18.4-2.3s-11.1.8-18.4 2.3c0 0-12.8 7.9-19.7 19.5 0 0-5.1 14.5-5.3 24.8l1.2 18.7 9.1 23.5 8 7.6 18 18.1h14.2l18-18.1 8-7.6 9.1-23.5 1.2-18.7c-.2-10.3-5.3-24.8-5.3-24.8z" fill="#875732" stroke-width="none" opacity="1"></path><path id="SvgjsPath12875" d="m93.2 150.3-24.4-24.7-7.7-23.7.3-18 4.3-22.1 17.4-18 16.7-4 18.6.7c-7.2-1.5-18.4-2.3-18.4-2.3s-11.1.8-18.4 2.3c0 0-12.8 7.9-19.7 19.5 0 0-5.1 14.5-5.3 24.8l1.2 18.7 9.1 23.5 8 7.6 18 18.1h14.2l18-18.1 8-7.6-27 23.4H93.2v-.1z" fill="#683712" stroke-width="none" opacity="1"></path></g></g><g id="svga-group-mouth-single-move" transform="matrix(1,0,0,1,0,0)"><g id="svga-group-mouth-single"><path id="SvgjsPath12975" d="m91.05 134.5 3.1 2.2 5.6-.2 6.6.6 2.7-2-2.9 1-6.5-.5-5.5.2z" fill="#683712" stroke-width="none" opacity="1" transform="translate(0 2)"></path><path id="SvgjsPath12976" d="m89.17 128.58-1.77 2.59 7.88-2.14 2.49 1.51 3.83.27 2.37-1.45 9.7 2.06-1.77-1.92-8.85-5.39-3.26.99-2.89-1.13z" fill="#a06b59" stroke-width="none" opacity="1" transform="translate(0 2)"></path><path id="SvgjsPath12977" d="m85.3 129.9 2.3 1.9 7.5-2.4 2.8 1.6 3.7.1 2.6-1.5 9.5 2.3 1.87-1.35-2.07.45-9.6-2.7-2.5 1.9-3.5-.1-2.7-2-7.8 2.7z" fill="#915642" stroke-width="none" opacity="1" transform="translate(0 2)"></path></g></g><g id="svga-group-eyes-left-move" transform="matrix(1,0,0,1,0,0)"><g id="svga-group-eyes-left"><g id="svga-group-eyesback-left"><path id="SvgjsPath12830" d="M91.2 95.7 86 91.1l-9 .1-7 3.8s5.8 4.3 7.2 4.9l8.8-.4 5.2-3.8z" fill="#ffffff" stroke-width="none" opacity="1"></path></g><g id="svga-group-eyesiriswrapper-left" transform="matrix(1,0,0,1,0,0)"><g id="svga-group-eyesiriscontrol-left" transform="matrix(1,0,0,1,0,0)"><g id="svga-group-eyesiris-left"><path id="SvgjsPath12909" d="m77 97.9-1.3-3.8 1.9-3.7 3.9-1.2 3.6 1.9 1.2 3.8-1.8 3.6-3.9 1.3z" fill="#5d411c" stroke-width="none" opacity="1"></path><path id="SvgjsPath12910" d="m81.5 89.5 3.4 1.8 1.2 3.7-1.8 3.4-3.7 1.2-3.4-1.8-1.2-3.7 1.8-3.4 3.7-1.2m0-.6-4.1 1.3-2 3.8 1.3 4.1 3.8 2 4.1-1.3 2-3.8-1.3-4.1-3.8-2z" fill="#3e2606" stroke-width="none" opacity="1"></path><path id="SvgjsPath12911" d="m82.2 91.6-2.4.1-1.6 1.7v2.3l1.7 1.6h2.4l1.6-1.7v-2.3z" fill="#000000" stroke-width="none" opacity="1"></path><path id="SvgjsPath12912" d="m77.9 91.2.9 1.1-1.2-.7.3-.4zm2.1-1v1.3l-.6-1.1.6-.2zm1.7-.2-.3 1.3-.3-1.3h.6zm1.7.9-.7.8.2-1.1.5.3zm1.5 1-1.3.8 1-1.2.3.4zm.6 1.9-1.4.1 1.2-.6.2.5zm.1 1.5-1.2-.4 1.3-.1-.1.5zm-.9 1.4-.8-.7 1.1.3-.3.4zm-.8 1.5-.7-1.3 1.1.9-.4.4zm-1.8.6-.1-1.4.6 1.2-.5.2zm-1.8.1.5-1.2.1 1.3-.6-.1zm-2-1.1.9-.9-.4 1.2-.5-.3zM77 96.2l1.1-.3-.8.8-.3-.5zm-.4-1.7 1.3.3-1.3.2v-.5zm.5-1.9.8.7-1.1-.2.3-.5z" fill="#271600" stroke-width="none" opacity="1"></path><path id="SvgjsPath12913" d="m78 92 2.2 2 .6-.4-1.3-2.7z" fill="#ffffff" stroke-width="none" opacity="1"></path><path id="SvgjsPath12914" d="m82.1 96.6.5 1 .9-.4-.5-1z" fill="#ffffff" stroke-width="none" opacity="1"></path></g></g></g><g id="svga-group-eyesfront-left"><path id="SvgjsPath12838" d="M67.1 89.3v11.9l7.9 8.4h11.2l7.9-8.4V89.3l-7.9-8.4H75l-7.9 8.4zm3 5.7 7-3.8 9-.1 5.1 4.6-5.2 3.9-8.8.4c-1.3-.8-7.1-5-7.1-5z" fill="#875732" stroke-width="none" opacity="1"></path><path id="SvgjsPath12839" d="m91.7 96.1-1.2-.6-4.7-4.1H77l-7.2 4-1 .2 7.9-5 9.6-.1z" fill="#000000" stroke-width="none" opacity="1"></path><path id="SvgjsPath12840" d="m90.8 94-4-4.1-9.8-.1-8.1 3.6 8.1-3.1h9.7z" fill="#784620" stroke-width="none" opacity="1"></path></g></g></g><g id="svga-group-eyes-right-move" transform="matrix(1,0,0,1,0,0)"><g id="svga-group-eyes-right"><g id="svga-group-eyesback-right"><path id="SvgjsPath12831" d="m108.8 95.7 5.1-4.6 9 .1 7 3.8s-5.8 4.3-7.2 4.9l-8.8-.4-5.1-3.8z" fill="#ffffff" stroke-width="none" opacity="1"></path></g><g id="svga-group-eyesiriswrapper-right" transform="matrix(1,0,0,1,0,0)"><g id="svga-group-eyesiriscontrol-right" transform="matrix(1,0,0,1,0,0)"><g id="svga-group-eyesiris-right"><path id="SvgjsPath12915" d="m114.9 97.9-1.2-3.8 1.8-3.7 3.9-1.2 3.6 1.9 1.3 3.8-1.9 3.6-3.9 1.3z" fill="#5d411c" stroke-width="none" opacity="1"></path><path id="SvgjsPath12916" d="m119.4 89.5 3.4 1.8L124 95l-1.8 3.4-3.7 1.2-3.4-1.8-1.2-3.7 1.8-3.4 3.7-1.2m0-.6-4.1 1.3-2 3.8 1.3 4.1 3.8 2 4.1-1.3 2-3.8-1.3-4.1-3.8-2z" fill="#3e2606" stroke-width="none" opacity="1"></path><path id="SvgjsPath12917" d="m120.1 91.6-2.4.1-1.6 1.7v2.3l1.7 1.6h2.4l1.6-1.7v-2.3z" fill="#000000" stroke-width="none" opacity="1"></path><path id="SvgjsPath12918" d="m115.9 91.2.8 1.1-1.2-.7.4-.4zm2-1v1.3l-.5-1.1.5-.2zm1.7-.2-.3 1.3-.3-1.3h.6zm1.7.9-.7.8.3-1.1.4.3zm1.5 1-1.3.8 1-1.2.3.4zm.6 1.9-1.3.1 1.1-.6.2.5zm.1 1.5-1.2-.4 1.3-.1-.1.5zm-.9 1.4-.8-.7 1.1.3-.3.4zm-.8 1.5-.7-1.3 1.1.9-.4.4zm-1.8.6-.1-1.4.6 1.2-.5.2zm-1.8.1.5-1.2.1 1.3-.6-.1zm-2-1.1.9-.9-.4 1.2-.5-.3zm-1.2-1.6 1-.3-.8.8-.2-.5zm-.5-1.7 1.3.3-1.3.2v-.5zm.5-1.9.8.7-1-.2.2-.5z" fill="#271600" stroke-width="none" opacity="1"></path><path id="SvgjsPath12919" d="m115.9 92 2.2 2 .6-.4-1.3-2.7z" fill="#ffffff" stroke-width="none" opacity="1"></path><path id="SvgjsPath12920" d="m120 96.6.5 1 .9-.4-.5-1z" fill="#ffffff" stroke-width="none" opacity="1"></path></g></g></g><g id="svga-group-eyesfront-right"><path id="SvgjsPath12841" d="M125 80.8h-11.2l-7.9 8.4v11.9l7.9 8.4H125l7.9-8.4V89.3l-7.9-8.5zm-2.3 19.1-8.8-.4-5.1-3.8 5.1-4.6 9 .1 7 3.8s-5.8 4.2-7.2 4.9z" fill="#875732" stroke-width="none" opacity="1"></path><path id="SvgjsPath12844" d="m108.3 96.1 1.2-.6 4.7-4.1h8.8l7.2 4 1 .2-7.9-5-9.6-.1z" fill="#000000" stroke-width="none" opacity="1"></path><path id="SvgjsPath12845" d="m109.2 94 4-4.1 9.8-.1 8.1 3.6-8.1-3.1h-9.7z" fill="#784620" stroke-width="none" opacity="1"></path></g></g></g><g id="svga-group-facehighlight-single"></g><g id="svga-group-eyebrows-left-move" transform="matrix(1,0,0,1,0,-1)"><g id="svga-group-eyebrows-left-rotate" transform="matrix(1,1.7453292519943295e-9,-1.7453292519943295e-9,1,1.4695672234665835e-7,-1.3875367699256458e-7)"><g id="svga-group-eyebrows-left"><path id="SvgjsPath12753" d="M92.8 80.6 91.1 86l-2.4 1-14.1-2.3-3.3 1.1-5.1 3.3s3.4-5.3 3.5-5.7c.1-.3 2.5-4.1 2.5-4.1l11.6.6 9 .7z" fill="#000000" stroke-width="none" opacity="1"></path><path id="SvgjsPath12754" d="m77.5 85.3-.4-.1-1.2-2.9-3.8-2.8 1.8.5 3.1 1.8c.1 0 .3 2.1.5 3.5zm2.9.4h-.2c.1-.9.1-2.4.1-2.6 0-.2.6-1.5 1.1-2.6l.3.1c-.4 1.6-.9 3.9-1.3 5.1zm4.6.8 5.6-5.6h.6c-.8 1.4-2 3.3-2.2 3.5-.2.1-1.8 1.2-3.3 2.2l-.7-.1zm.1-5.6h.2l-1.5 3.6-1.3 1.6-.4-.1 3-5.1zm-16.1 4c1.4-.5 2.6-1 2.8-1 .2-.1 1.3.5 2.2 1.1l-.8.3c-.6-.1-1-.2-1.1-.3-.1 0-1.8.3-3.5.7.1-.3.3-.5.4-.8z" fill="#000000" stroke-width="none" opacity="1"></path></g></g></g><g id="svga-group-eyebrows-right-move" transform="matrix(1,0,0,1,0,-1)"><g id="svga-group-eyebrows-right-rotate" transform="matrix(1,1.7453292519943295e-9,-1.7453292519943295e-9,1,1.4713126006427046e-7,-2.1039944897438545e-7)"><g id="svga-group-eyebrows-right"><path id="SvgjsPath12755" d="m107.2 80.6 1.8 5.5 2.4 1 14.1-2.3 3.3 1.1 5.1 3.3s-3.4-5.3-3.5-5.7c-.1-.3-2.5-4.1-2.5-4.1l-11.6.6-9.1.6z" fill="#000000" stroke-width="none" opacity="1"></path><path id="SvgjsPath12756" d="m122.5 85.3.4-.1 1.2-2.9 3.8-2.8-1.8.5-3.1 1.8c-.1 0-.3 2.1-.5 3.5zm-2.9.4h.2c-.1-.9-.1-2.4-.1-2.6 0-.2-.6-1.5-1.1-2.6l-.3.1c.4 1.6.9 3.9 1.3 5.1zm-4.6.8-5.6-5.6h-.6c.8 1.4 2 3.3 2.2 3.5.2.1 1.8 1.2 3.3 2.2l.7-.1zm-.1-5.6h-.2l1.5 3.6 1.3 1.6.4-.1-3-5.1zm16.1 4c-1.4-.5-2.6-1-2.8-1-.2-.1-1.3.5-2.2 1.1l.8.3c.6-.1 1-.2 1.1-.3.1 0 1.8.3 3.5.7-.1-.3-.3-.5-.4-.8z" fill="#000000" stroke-width="none" opacity="1"></path></g></g></g><g id="svga-group-beardwrap"><g id="svga-group-beard-single-move" transform="matrix(1,0,0,1,0,0)"><g id="svga-group-beard-single"></g></g></g><g id="svga-group-mustache-single-move" transform="matrix(1,0,0,1,0,0)"><g id="svga-group-mustache-single"></g></g><g id="svga-group-nose-single-move" transform="matrix(1,0,0,1,0,0)"><g id="svga-group-nose-single"><path id="SvgjsPath12962" d="m104.02 101.62 6.37 11.09-2.65 3.58-2.86-2.01-1.86 3.72h-6.3l-1.79-3.72-2.93 1.86-2.58-3.65 6.73-11.37 3.86-1.65z" fill="#875732" stroke-width="none" opacity="1" transform="translate(0 1)"></path><path id="SvgjsPath12963" d="m104.31 101.38-1.02-.41 6.61 11.51-2.05 2.93-1.77-1.21.28-1.31-1.4.6-2.05 4.04-2.7.1-3.2-.1-2.05-4.04-1.4-.6.28 1.31-1.77 1.21-2.04-2.93 6.61-11.51.42-13.8-1.45 14.21-6.7 11.3 3.26 4.24 2.79-2.01 1.58 3.53h6.84l1.58-3.53 2.8 2.01 3.26-4.24z" fill="#683712" stroke-width="none" opacity="1" transform="translate(0 1)"></path><path id="SvgjsPath12964" d="m96.51 113.01 1.67.79 3.93.1 1.96-.89-.74-3.01-1.27-3.98-2.6 5.23z" fill="#8f603c" stroke-width="none" opacity="1" transform="translate(0 1)"></path></g></g><g id="svga-group-hair-front"><path id="SvgjsPath13074" d="m54.24 85.14 4.35 11.46 3.16 2.56 4.74-40.3 5.14-7.12 10.47-2.57 17.59 4.15 16.59-3.95 10.87 1.98 6.13 6.91 5.73 39.72 3.36-4.94 2.56-8.5-.59-4.94 1.19-6.91-1.58-4.75.59-7.7-2.17-4.74-.6-6.92-6.52-6.91-7.11-13.44-14.03-7.11-10.87 2.37-4.74-2.77-3.56 1.58-13.23.99-5.54 6.13-8.3 2.56-1.18 3.56-9.49 9.29-.19 11.26-2.37 7.9 1.77 2.57-3.16 7.12 1.58 5.53z" fill="#2a232b" stroke-width="none" opacity="1"></path><path id="SvgjsPath13075" d="M138.83 80.27c-.22-.9-4.49-22.91-4.49-22.91l-6.74-7.19-11.68-2.02-16.85 3.82-12.13-10.56 1.57-11.23 9.88-7.41 4.72 2.25 11-3.9-10.87 2.37-4.74-2.77-3.56 1.58-13.24.99-5.53 6.13-8.3 2.57-1.19 3.56-9.48 9.29L57 56.1 54.63 64l1.78 2.57-3.16 7.11 1.58 5.53-.59 5.93 4.35 11.46 3.16 2.57.36-3.05-5.72-9.77v-5.39l6.53 8.22.37-3.11-7.8-12.52 2.25-4.94 6.45 9.86.85-7.2-5.05-10.3-.9-14.38 8.09-7.86-2.25 8.09 1.56 12.05 5.14-7.11-2.88-6.51 8.54-14.38 8.98-6.29-6.51 19.99 3.82 4.96 16.11 3.8 16.6-3.95 10.87 1.98 6.13 6.92L139.02 98c-.01-.02.03-16.83-.19-17.73z" fill="#1b141c" stroke-width="none" opacity="1"></path><path id="SvgjsPath13076" d="m102.27 27.16-.99 10.36 13.49 10.19-11.68-11.02z" fill="#1b141c" stroke-width="none" opacity="1"></path><path id="SvgjsPath13077" d="m134.23 42.76.15 9.18-.47 3.32 1.74-4.43.63-6.02z" fill="#1b141c" stroke-width="none" opacity="1"></path><path id="SvgjsPath13078" d="M140.72 58.74c-.32.47-2.53 8.55-2.53 8.55l-1.58 2.69 2.85-2.22 2.37-8.23-1.11-.79z" fill="#1b141c" stroke-width="none" opacity="1"></path></g><g id="svga-group-glasses-single-move" transform="matrix(1,0,0,1,0,0)"><g id="svga-group-glasses-single"><path id="SvgjsPath12986" d="M85 80.3H74.7l-8.4 6.1-3.2 9.8 3.2 9.8 8.4 6.1H85l8.4-6.1 3.2-9.8-3.2-9.8z" fill="url(#SvgjsLinearGradient12987)" opacity="1"></path><path id="SvgjsPath12994" d="M115 80.3h10.3l8.4 6.1 3.2 9.8-3.2 9.8-8.4 6.1H115l-8.4-6.1-3.2-9.8 3.2-9.8z" fill="url(#SvgjsLinearGradient12995)" opacity="1"></path><path id="SvgjsPath13002" d="m138 92.2-1.9-1.8-1.5-4.6-8.9-6.5h-11l-8.9 6.5-1.8 5.5-1.5-.4-1.8-.9h-1.4l-1.8.9-1.5.4-1.8-5.5-8.9-6.5h-11l-8.9 6.5-1.4 4.6-2 1.8-2.3.2v4.8l2.6 1.2.7.8 2.4 7.3 8.9 6.5h11l8.9-6.5 3.4-10.4 1.7-2.6h1.4l1.7 2.6 3.4 10.4 8.9 6.5h11l8.9-6.5 2.4-7.3.7-.8 2.6-1.2v-4.8l-2.3-.2zm-45.5 13.2-7.8 5.7H75l-7.8-5.7-3-9.2 3-9.2 7.8-5.7h9.7l7.8 5.7 3 9.2-3 9.2zm40.3 0-7.8 5.7h-9.7l-7.8-5.7-3-9.2 3-9.2 7.8-5.7h9.7l7.8 5.7 3 9.2-3 9.2z" fill="#3b190d" stroke-width="none" opacity="1"></path></g></g></g></g></g><rect id="svga-credit-rect" width="200" height="15" x="0" y="185" fill="#ecf0f1" opacity="0.5" style="display: none;"></rect><text id="svga-credit-text" font-family="Avenir Next, Roboto, Helvetica, Arial, sans-serif" font-size="10px" text-anchor="start" font-weight="400" size="10px" anchor="start" weight="400" fill="#333333" x="33.40447998046875" y="182.60824704170227" style="display: none;"><tspan id="SvgjsTspan12747" dy="13" x="33.40447998046875">Created on AvatarMaker.com</tspan></text></g><defs id="SvgjsDefs12694"><linearGradient id="SvgjsLinearGradient12987" x1="79.8605" y1="80.2962" x2="79.8605" y2="112.0897" gradientUnits="userSpaceOnUse" class="svga-on-canvas-glasses-gradient-single-0-null"><stop id="SvgjsStop12988" stop-opacity="1" stop-color="#b4c0cf" offset="0" ></stop><stop id="SvgjsStop12989" stop-opacity="0.9374" stop-color="#abbace" offset="0.06260771" ></stop><stop id="SvgjsStop12990" stop-opacity="0.679" stop-color="#8aa3ca" offset="0.321" ></stop><stop id="SvgjsStop12991" stop-opacity="0.4305" stop-color="#7393c6" offset="0.5695" ></stop><stop id="SvgjsStop12992" stop-opacity="0.1987" stop-color="#6589c5" offset="0.8013" ></stop><stop id="SvgjsStop12993" stop-opacity="0" stop-color="#6086c4" offset="1" ></stop></linearGradient><linearGradient id="SvgjsLinearGradient12995" x1="-20.1395" y1="80.2962" x2="-20.1395" y2="112.0897" gradientTransform="matrix(-1 0 0 1 100 0)" gradientUnits="userSpaceOnUse" class="svga-on-canvas-glasses-gradient-single-1-null"><stop id="SvgjsStop12996" stop-opacity="1" stop-color="#b4c0cf" offset="0" ></stop><stop id="SvgjsStop12997" stop-opacity="0.9374" stop-color="#abbace" offset="0.06260771" ></stop><stop id="SvgjsStop12998" stop-opacity="0.679" stop-color="#8aa3ca" offset="0.321" ></stop><stop id="SvgjsStop12999" stop-opacity="0.4305" stop-color="#7393c6" offset="0.5695" ></stop><stop id="SvgjsStop13000" stop-opacity="0.1987" stop-color="#6589c5" offset="0.8013" ></stop><stop id="SvgjsStop13001" stop-opacity="0" stop-color="#6086c4" offset="1" ></stop></linearGradient></defs></svg>